<svg width="56" height="52" viewBox="0 0 56 52" fill="none" xmlns="http://www.w3.org/2000/svg">
<rect x="0.996094" y="1" width="54" height="50" rx="19" stroke="#60A5FA" stroke-opacity="0.32" stroke-width="2"/>
<g clip-path="url(#clip0_20_10993)">
<path d="M29.9961 33C29.9961 31.8418 30.3314 30.7083 30.9614 29.7364C31.5915 28.7645 32.4893 27.9957 33.5467 27.5229C34.604 27.05 35.7756 26.8933 36.92 27.0717C38.0644 27.2501 39.1328 27.7558 39.9961 28.528V20H33.9961C33.9961 18.4087 33.364 16.8826 32.2387 15.7574C31.1135 14.6321 29.5874 14 27.9961 14C26.4048 14 24.8787 14.6321 23.7535 15.7574C22.6282 16.8826 21.9961 18.4087 21.9961 20H15.9961V35C15.9961 35.7956 16.3122 36.5587 16.8748 37.1213C17.4374 37.6839 18.2004 38 18.9961 38H32.6791C31.8537 37.453 31.1766 36.7101 30.7085 35.8376C30.2403 34.9651 29.9955 33.9902 29.9961 33ZM27.9961 16C29.057 16 30.0744 16.4214 30.8245 17.1716C31.5747 17.9217 31.9961 18.9391 31.9961 20H23.9961C23.9961 18.9391 24.4175 17.9217 25.1677 17.1716C25.9178 16.4214 26.9352 16 27.9961 16Z" fill="#60A5FA"/>
<path d="M38.9958 31.9995H36.9958V29.9995H34.9958V31.9995H32.9958V33.9995H34.9958V35.9995H36.9958V33.9995H38.9958V31.9995Z" fill="#60A5FA"/>
</g>
<defs>
<clipPath id="clip0_20_10993">
<rect width="24" height="24" fill="white" transform="translate(15.9961 14)"/>
</clipPath>
</defs>
</svg>
