<svg width="57" height="56" viewBox="0 0 57 56" fill="none" xmlns="http://www.w3.org/2000/svg">
<g clip-path="url(#clip0_20_10921)">
<mask id="mask0_20_10921" style="mask-type:luminance" maskUnits="userSpaceOnUse" x="0" y="0" width="57" height="56">
<path d="M56.2229 0H0.777344V55.4455H56.2229V0Z" fill="white"/>
</mask>
<g mask="url(#mask0_20_10921)">
<path d="M0.777344 26.6139C0.777344 14.068 0.777344 7.79503 4.67485 3.89751C8.57238 0 14.8453 0 27.3912 0H29.609C42.1549 0 48.4279 0 52.3254 3.89751C56.2229 7.79503 56.2229 14.068 56.2229 26.6139V28.8317C56.2229 41.3776 56.2229 47.6505 52.3254 51.5481C48.4279 55.4455 42.1549 55.4455 29.609 55.4455H27.3912C14.8453 55.4455 8.57238 55.4455 4.67485 51.5481C0.777344 47.6505 0.777344 41.3776 0.777344 28.8317V26.6139Z" fill="#0077FF"/>
<path d="M30.279 39.944C17.642 39.944 10.4341 31.2806 10.1338 16.8647H16.4638C16.6718 27.4456 21.3383 31.9274 25.0347 32.8515V16.8647H30.9953V25.9901C34.6454 25.5974 38.4799 21.439 39.7737 16.8647H45.7343C44.7408 22.5017 40.5824 26.6601 37.6254 28.3696C40.5824 29.7558 45.3186 33.3829 47.1206 39.944H40.5594C39.1501 35.5545 35.6388 32.1585 30.9953 31.6964V39.944H30.279Z" fill="white"/>
</g>
</g>
<defs>
<clipPath id="clip0_20_10921">
<rect width="56" height="55.4455" fill="white" transform="translate(0.5)"/>
</clipPath>
</defs>
</svg>
