<svg width="75" height="74" viewBox="0 0 75 74" fill="none" xmlns="http://www.w3.org/2000/svg">
<rect opacity="0.04" x="0.5" width="74" height="74" rx="16" fill="#252729"/>
<g clip-path="url(#clip0_20_10919)">
<mask id="mask0_20_10919" style="mask-type:luminance" maskUnits="userSpaceOnUse" x="9" y="9" width="57" height="56">
<path d="M65.2229 9H9.77734V64.4455H65.2229V9Z" fill="white"/>
</mask>
<g mask="url(#mask0_20_10919)">
<path d="M9.77734 35.6139C9.77734 23.068 9.77734 16.795 13.6749 12.8975C17.5724 9 23.8453 9 36.3912 9H38.609C51.1549 9 57.4279 9 61.3254 12.8975C65.2229 16.795 65.2229 23.068 65.2229 35.6139V37.8317C65.2229 50.3776 65.2229 56.6505 61.3254 60.5481C57.4279 64.4455 51.1549 64.4455 38.609 64.4455H36.3912C23.8453 64.4455 17.5724 64.4455 13.6749 60.5481C9.77734 56.6505 9.77734 50.3776 9.77734 37.8317V35.6139Z" fill="#0077FF"/>
<path d="M39.279 48.944C26.642 48.944 19.4341 40.2806 19.1338 25.8647H25.4638C25.6718 36.4456 30.3383 40.9274 34.0347 41.8515V25.8647H39.9953V34.9901C43.6454 34.5974 47.4799 30.439 48.7737 25.8647H54.7343C53.7408 31.5017 49.5824 35.6601 46.6254 37.3696C49.5824 38.7558 54.3186 42.3829 56.1206 48.944H49.5594C48.1501 44.5545 44.6388 41.1585 39.9953 40.6964V48.944H39.279Z" fill="white"/>
</g>
</g>
<defs>
<clipPath id="clip0_20_10919">
<rect width="56" height="55.4455" fill="white" transform="translate(9.5 9)"/>
</clipPath>
</defs>
</svg>
