<svg width="75" height="74" viewBox="0 0 75 74" fill="none" xmlns="http://www.w3.org/2000/svg">
<rect x="0.5" width="74" height="74" rx="16" fill="#F1F2F6"/>
<path d="M26.2702 62.3191C35.5321 62.3191 43.0405 54.8849 43.0405 45.7145C43.0405 36.5439 35.5321 29.1099 26.2702 29.1099C17.0083 29.1099 9.5 36.5439 9.5 45.7145C9.5 54.8849 17.0083 62.3191 26.2702 62.3191Z" fill="#04E061"/>
<path d="M55.3636 60.2291C60.9603 60.2291 65.4972 55.7369 65.4972 50.1956C65.4972 44.6542 60.9603 40.1621 55.3636 40.1621C49.767 40.1621 45.23 44.6542 45.23 50.1956C45.23 55.7369 49.767 60.2291 55.3636 60.2291Z" fill="#FF4053"/>
<path d="M29.4769 26.9526C32.9403 26.9526 35.7479 24.1727 35.7479 20.7436C35.7479 17.3145 32.9403 14.5347 29.4769 14.5347C26.0136 14.5347 23.2061 17.3145 23.2061 20.7436C23.2061 24.1727 26.0136 26.9526 29.4769 26.9526Z" fill="#965EEB"/>
<path d="M51.4334 38.0004C58.9637 38.0004 65.0682 31.9561 65.0682 24.5002C65.0682 17.0442 58.9637 11 51.4334 11C43.903 11 37.7986 17.0442 37.7986 24.5002C37.7986 31.9561 43.903 38.0004 51.4334 38.0004Z" fill="#00AAFF"/>
</svg>
