<svg width="75" height="74" viewBox="0 0 75 74" fill="none" xmlns="http://www.w3.org/2000/svg">
<rect opacity="0.04" x="0.5" width="74" height="74" rx="16" fill="#252729"/>
<g clip-path="url(#clip0_20_10952)">
<path d="M15.3333 41.3341C17.7266 41.3341 19.6667 39.394 19.6667 37.0008C19.6667 34.6076 17.7266 32.6675 15.3333 32.6675C12.9401 32.6675 11 34.6076 11 37.0008C11 39.394 12.9401 41.3341 15.3333 41.3341Z" fill="#252729"/>
<path d="M36.9996 41.3341C39.3928 41.3341 41.3329 39.394 41.3329 37.0008C41.3329 34.6076 39.3928 32.6675 36.9996 32.6675C34.6064 32.6675 32.6663 34.6076 32.6663 37.0008C32.6663 39.394 34.6064 41.3341 36.9996 41.3341Z" fill="#252729"/>
<path d="M58.6671 41.3341C61.0603 41.3341 63.0004 39.394 63.0004 37.0008C63.0004 34.6076 61.0603 32.6675 58.6671 32.6675C56.2738 32.6675 54.3337 34.6076 54.3337 37.0008C54.3337 39.394 56.2738 41.3341 58.6671 41.3341Z" fill="#252729"/>
</g>
<defs>
<clipPath id="clip0_20_10952">
<rect width="52" height="52" fill="white" transform="translate(11 11)"/>
</clipPath>
</defs>
</svg>
