<svg width="75" height="74" viewBox="0 0 75 74" fill="none" xmlns="http://www.w3.org/2000/svg">
<rect opacity="0.04" x="0.5" width="74" height="74" rx="16" fill="#252729"/>
<g clip-path="url(#clip0_20_10900)">
<path d="M11.055 44.9278C14.4615 56.2863 24.9973 64.5691 37.4646 64.5691C52.6906 64.5691 65.0338 52.2259 65.0338 36.9999C65.0338 21.7739 52.6906 9.43066 37.4646 9.43066C22.8546 9.43066 10.8991 20.7969 9.95483 35.1683C11.7417 38.1638 12.4352 40.017 11.0533 44.9278H11.055Z" fill="url(#paint0_linear_20_10900)"/>
<path d="M36.0438 30.0948L36.0464 30.2309L29.3005 40.0309C28.2081 39.981 27.1122 40.1731 26.0715 40.6013C25.6184 40.7854 25.1859 41.0164 24.7809 41.2905L9.96674 35.1848C9.96674 35.1848 9.62385 40.8244 11.0523 45.027L21.5251 49.3485C22.0421 51.6988 23.6618 53.7596 26.0413 54.7503C27.9134 55.5282 30.0177 55.5312 31.892 54.7588C33.7663 53.9863 35.2574 52.5015 36.0378 50.6304C36.4541 49.6338 36.6549 48.5604 36.6271 47.4807L46.2703 40.584L46.5072 40.5884C52.2838 40.5884 56.9792 35.8792 56.9792 30.0948C56.9792 24.3104 52.2924 19.6185 46.5072 19.6064C40.7331 19.6064 36.0352 24.3104 36.0352 30.0948H36.0438ZM34.4241 49.9533C33.1714 52.9687 29.7149 54.3876 26.7107 53.1358C25.3776 52.5755 24.297 51.5446 23.6747 50.2393L27.0838 51.6522C27.6104 51.8714 28.1751 51.9847 28.7455 51.9856C29.316 51.9866 29.881 51.8751 30.4084 51.6575C30.9357 51.44 31.415 51.1207 31.8189 50.7178C32.2227 50.315 32.5433 49.8365 32.7622 49.3097C33.2054 48.2453 33.2081 47.0485 32.7695 45.9822C32.3309 44.9158 31.487 44.0672 30.4231 43.6227L26.8908 42.1624C28.2503 41.6455 29.7959 41.6282 31.2416 42.2287C32.7062 42.8344 33.8262 43.9751 34.4258 45.4336C35.0255 46.8922 35.022 48.5007 34.4172 49.9533M46.5167 37.0862C44.6656 37.0812 42.892 36.3428 41.5843 35.0327C40.2766 33.7226 39.5415 31.9476 39.5399 30.0965C39.542 28.2458 40.2773 26.4713 41.5849 25.1615C42.8926 23.8518 44.6659 23.1136 46.5167 23.1086C48.3677 23.1132 50.1415 23.8511 51.4495 25.1609C52.7575 26.4707 53.4931 28.2455 53.4951 30.0965C53.4935 31.9479 52.7581 33.7231 51.4501 35.0333C50.142 36.3434 48.368 37.0816 46.5167 37.0862ZM41.2888 30.0853C41.2877 28.6946 41.8388 27.3602 42.821 26.3756C43.8032 25.3909 45.1362 24.8365 46.527 24.8343C49.4175 24.8343 51.7686 27.1863 51.7686 30.0853C51.7693 31.4764 51.2175 32.8108 50.2346 33.7952C49.2517 34.7796 47.9181 35.3333 46.527 35.3347C45.1364 35.3326 43.8034 34.7786 42.8211 33.7943C41.8387 32.81 41.2881 31.476 41.2888 30.0853Z" fill="white"/>
</g>
<defs>
<linearGradient id="paint0_linear_20_10900" x1="2763.91" y1="9.43066" x2="2763.91" y2="5523.28" gradientUnits="userSpaceOnUse">
<stop stop-color="#111D2E"/>
<stop offset="0.212" stop-color="#051839"/>
<stop offset="0.407" stop-color="#0A1B48"/>
<stop offset="0.581" stop-color="#132E62"/>
<stop offset="0.738" stop-color="#144B7E"/>
<stop offset="0.873" stop-color="#136497"/>
<stop offset="1" stop-color="#1387B8"/>
</linearGradient>
<clipPath id="clip0_20_10900">
<rect width="56" height="56" fill="white" transform="translate(9.5 9)"/>
</clipPath>
</defs>
</svg>
