<svg width="75" height="74" viewBox="0 0 75 74" fill="none" xmlns="http://www.w3.org/2000/svg">
<rect opacity="0.04" x="0.5" width="74" height="74" rx="16" fill="#252729"/>
<g clip-path="url(#clip0_20_10875)">
<path d="M54.9064 16.6965C51.3371 15.0588 47.5096 13.8522 43.5078 13.1611C43.4349 13.1478 43.3621 13.1811 43.3245 13.2478C42.8323 14.1233 42.287 15.2654 41.9052 16.1632C37.6009 15.5188 33.3188 15.5188 29.1027 16.1632C28.7208 15.2455 28.1558 14.1233 27.6613 13.2478C27.6238 13.1833 27.551 13.15 27.4781 13.1611C23.4785 13.85 19.651 15.0566 16.0795 16.6965C16.0486 16.7098 16.0221 16.7321 16.0045 16.7609C8.74458 27.6071 6.75578 38.1867 7.73142 48.6351C7.73583 48.6862 7.76453 48.7351 7.80426 48.7662C12.5942 52.2838 17.234 54.4193 21.7877 55.8348C21.8605 55.857 21.9377 55.8303 21.9841 55.7703C23.0613 54.2993 24.0215 52.7483 24.8448 51.1172C24.8934 51.0217 24.847 50.9083 24.7477 50.8705C23.2246 50.2928 21.7744 49.5884 20.3794 48.7884C20.269 48.724 20.2602 48.5662 20.3617 48.4906C20.6553 48.2706 20.9489 48.0418 21.2292 47.8107C21.2799 47.7685 21.3506 47.7596 21.4102 47.7862C30.575 51.9705 40.4969 51.9705 49.5536 47.7862C49.6132 47.7573 49.6839 47.7663 49.7368 47.8084C50.0172 48.0395 50.3107 48.2706 50.6065 48.4906C50.708 48.5662 50.7014 48.724 50.5911 48.7884C49.196 49.6039 47.7458 50.2928 46.2205 50.8683C46.1212 50.9061 46.0771 51.0217 46.1256 51.1172C46.9666 52.746 47.9268 54.297 48.9841 55.7681C49.0283 55.8303 49.1077 55.857 49.1806 55.8348C53.7563 54.4193 58.3961 52.2838 63.186 48.7662C63.228 48.7351 63.2545 48.6884 63.2589 48.6373C64.4265 36.5578 61.3031 26.065 54.9792 16.7631C54.9637 16.7321 54.9373 16.7098 54.9064 16.6965ZM26.2134 42.2731C23.4542 42.2731 21.1806 39.74 21.1806 36.629C21.1806 33.518 23.4101 30.9848 26.2134 30.9848C29.0387 30.9848 31.2902 33.5402 31.246 36.629C31.246 39.74 29.0166 42.2731 26.2134 42.2731ZM44.8211 42.2731C42.0619 42.2731 39.7884 39.74 39.7884 36.629C39.7884 33.518 42.0178 30.9848 44.8211 30.9848C47.6465 30.9848 49.8979 33.5402 49.8538 36.629C49.8538 39.74 47.6465 42.2731 44.8211 42.2731Z" fill="#5865F2"/>
</g>
<defs>
<clipPath id="clip0_20_10875">
<rect width="56" height="56" fill="white" transform="translate(7.5 7)"/>
</clipPath>
</defs>
</svg>
