<svg width="75" height="74" viewBox="0 0 75 74" fill="none" xmlns="http://www.w3.org/2000/svg">
<rect opacity="0.04" x="0.5" width="74" height="74" rx="16" fill="#252729"/>
<g clip-path="url(#clip0_20_10881)">
<path d="M37.4995 31.9092V42.7528H52.5686C51.9069 46.2401 49.9212 49.1929 46.943 51.1784L56.0303 58.2293C61.3248 53.3422 64.3794 46.164 64.3794 37.6367C64.3794 35.6513 64.2012 33.742 63.8702 31.9095L37.4995 31.9092Z" fill="#4285F4"/>
<path d="M21.8076 42.3296L19.7581 43.8985L12.5034 49.5493C17.1107 58.6874 26.5536 65.0002 37.499 65.0002C45.0588 65.0002 51.3969 62.5056 56.0297 58.2294L46.9425 51.1784C44.4479 52.8584 41.2661 53.8767 37.499 53.8767C30.219 53.8767 24.0337 48.964 21.819 42.3458L21.8076 42.3296Z" fill="#34A853"/>
<path d="M12.5034 24.4507C10.5944 28.2178 9.5 32.4688 9.5 36.9996C9.5 41.5304 10.5944 45.7814 12.5034 49.5485C12.5034 49.5738 21.8199 42.3194 21.8199 42.3194C21.2599 40.6394 20.9289 38.8577 20.9289 36.9993C20.9289 35.1409 21.2599 33.3592 21.8199 31.6792L12.5034 24.4507Z" fill="#FBBC05"/>
<path d="M37.4996 20.1491C41.6233 20.1491 45.2886 21.5745 48.2159 24.3236L56.234 16.3055C51.3722 11.7747 45.0597 9 37.4996 9C26.5542 9 17.1107 15.2873 12.5034 24.4509L21.8197 31.68C24.0341 25.0618 30.2196 20.1491 37.4996 20.1491Z" fill="#EA4335"/>
</g>
<defs>
<clipPath id="clip0_20_10881">
<rect width="56" height="56" fill="white" transform="translate(9.5 9)"/>
</clipPath>
</defs>
</svg>
