<svg width="57" height="56" viewBox="0 0 57 56" fill="none" xmlns="http://www.w3.org/2000/svg">
<rect x="1.5" y="1" width="54" height="54" rx="19" stroke="#E7E9EE" stroke-width="2"/>
<g clip-path="url(#clip0_20_11370)">
<path d="M34.5 22C34.5 20.4087 33.8679 18.8826 32.7426 17.7574C31.6174 16.6321 30.0913 16 28.5 16C26.9087 16 25.3826 16.6321 24.2574 17.7574C23.1321 18.8826 22.5 20.4087 22.5 22H16.5V37C16.5 37.7956 16.8161 38.5587 17.3787 39.1213C17.9413 39.6839 18.7044 40 19.5 40H37.5C38.2956 40 39.0587 39.6839 39.6213 39.1213C40.1839 38.5587 40.5 37.7956 40.5 37V22H34.5ZM28.5 18C29.5609 18 30.5783 18.4214 31.3284 19.1716C32.0786 19.9217 32.5 20.9391 32.5 22H24.5C24.5 20.9391 24.9214 19.9217 25.6716 19.1716C26.4217 18.4214 27.4391 18 28.5 18ZM38.5 37C38.5 37.2652 38.3946 37.5196 38.2071 37.7071C38.0196 37.8946 37.7652 38 37.5 38H19.5C19.2348 38 18.9804 37.8946 18.7929 37.7071C18.6054 37.5196 18.5 37.2652 18.5 37V24H22.5V26H24.5V24H32.5V26H34.5V24H38.5V37Z" fill="#252729"/>
</g>
<defs>
<clipPath id="clip0_20_11370">
<rect width="24" height="24" fill="white" transform="translate(16.5 16)"/>
</clipPath>
</defs>
</svg>
