<svg width="57" height="56" viewBox="0 0 57 56" fill="none" xmlns="http://www.w3.org/2000/svg">
<rect x="1.5" y="1" width="54" height="54" fill="#F8FAFF" stroke="black" stroke-width="2"/>
<g filter="url(#filter0_d_20_11379)">
<path d="M13.7309 21.28C12.3309 21.28 11.1509 20.98 10.1909 20.38C9.23086 19.7667 8.54419 18.9133 8.13086 17.82L10.8909 16.22C11.4509 17.5133 12.4309 18.16 13.8309 18.16C15.0975 18.16 15.7309 17.78 15.7309 17.02C15.7309 16.5933 15.5242 16.2733 15.1109 16.06C14.6842 15.8067 13.9242 15.5333 12.8309 15.24C11.7109 14.9333 10.7642 14.4933 9.99086 13.92C9.13753 13.2267 8.71086 12.2467 8.71086 10.98C8.71086 9.68667 9.17086 8.65333 10.0909 7.88C11.0242 7.10667 12.1309 6.72 13.4109 6.72C14.5575 6.72 15.5709 6.99333 16.4509 7.54C17.3309 8.07333 18.0242 8.85333 18.5309 9.88L15.8309 11.46C15.3242 10.38 14.5175 9.84 13.4109 9.84C12.9442 9.84 12.5775 9.94 12.3109 10.14C12.0442 10.34 11.9109 10.5933 11.9109 10.9C11.9109 11.2333 12.0709 11.5333 12.3909 11.8C12.7375 12.0667 13.4175 12.3467 14.4309 12.64L15.7309 13.06C16.0642 13.1667 16.4509 13.3467 16.8909 13.6C17.3709 13.84 17.7309 14.1 17.9709 14.38C18.6109 15.0733 18.9309 15.94 18.9309 16.98C18.9309 18.3 18.4509 19.3533 17.4909 20.14C16.5309 20.9 15.2775 21.28 13.7309 21.28ZM32.2724 19.18C30.8591 20.58 29.1391 21.28 27.1124 21.28C25.0858 21.28 23.3658 20.58 21.9524 19.18C20.5391 17.78 19.8324 16.0533 19.8324 14C19.8324 11.9467 20.5391 10.22 21.9524 8.82C23.3658 7.42 25.0858 6.72 27.1124 6.72C29.1391 6.72 30.8591 7.42 32.2724 8.82C33.6858 10.22 34.3924 11.9467 34.3924 14C34.3924 16.0533 33.6858 17.78 32.2724 19.18ZM23.0324 14C23.0324 15.2267 23.4191 16.2267 24.1924 17C24.9658 17.7733 25.9391 18.16 27.1124 18.16C28.2724 18.16 29.2391 17.7733 30.0124 17C30.7991 16.2133 31.1924 15.2133 31.1924 14C31.1924 12.7867 30.7991 11.7867 30.0124 11C29.2391 10.2267 28.2724 9.84 27.1124 9.84C25.9391 9.84 24.9658 10.2267 24.1924 11C23.4191 11.7733 23.0324 12.7733 23.0324 14ZM42.8741 21.28C40.7808 21.28 39.0408 20.5867 37.6541 19.2C36.2808 17.8133 35.5941 16.08 35.5941 14C35.5941 11.92 36.2808 10.1933 37.6541 8.82C39.0275 7.42 40.7675 6.72 42.8741 6.72C44.1275 6.72 45.2875 7.01333 46.3541 7.6C47.4208 8.17333 48.2608 8.96 48.8741 9.96L46.1141 11.56C45.8075 11.0133 45.3675 10.5933 44.7941 10.3C44.2341 9.99333 43.5941 9.84 42.8741 9.84C41.6208 9.84 40.6275 10.22 39.8941 10.98C39.1608 11.7267 38.7941 12.7333 38.7941 14C38.7941 15.2667 39.1608 16.2733 39.8941 17.02C40.6275 17.78 41.6208 18.16 42.8741 18.16C43.5808 18.16 44.2208 18.0067 44.7941 17.7C45.3808 17.3933 45.8208 16.9733 46.1141 16.44L48.8741 18.04C48.2741 19.04 47.4408 19.8333 46.3741 20.42C45.3075 20.9933 44.1408 21.28 42.8741 21.28ZM20.0977 39.6V32H23.2977V46H20.8977L15.4977 38.4V46H12.2977V32H14.6977L20.0977 39.6ZM28.8961 40.44V42.92H34.4961V46H25.6961V32H34.3961V35.08H28.8961V37.4H33.8961V40.44H28.8961ZM35.3016 32H45.7016V35.08H42.1016V46H38.9016V35.08H35.3016V32Z" fill="black"/>
</g>
<defs>
<filter id="filter0_d_20_11379" x="4.13086" y="6.72021" width="48.7432" height="47.2798" filterUnits="userSpaceOnUse" color-interpolation-filters="sRGB">
<feFlood flood-opacity="0" result="BackgroundImageFix"/>
<feColorMatrix in="SourceAlpha" type="matrix" values="0 0 0 0 0 0 0 0 0 0 0 0 0 0 0 0 0 0 127 0" result="hardAlpha"/>
<feOffset dy="4"/>
<feGaussianBlur stdDeviation="2"/>
<feComposite in2="hardAlpha" operator="out"/>
<feColorMatrix type="matrix" values="0 0 0 0 0 0 0 0 0 0 0 0 0 0 0 0 0 0 0.25 0"/>
<feBlend mode="normal" in2="BackgroundImageFix" result="effect1_dropShadow_20_11379"/>
<feBlend mode="normal" in="SourceGraphic" in2="effect1_dropShadow_20_11379" result="shape"/>
</filter>
</defs>
</svg>
