<svg width="57" height="56" viewBox="0 0 57 56" fill="none" xmlns="http://www.w3.org/2000/svg">
<rect x="1.5" y="1" width="54" height="54" rx="19" stroke="#E7E9EE" stroke-width="2"/>
<g clip-path="url(#clip0_20_11373)">
<path d="M39.7589 32.2002L37.1589 22.8292C36.6037 20.8246 35.394 19.0633 33.7222 17.8257C32.0504 16.588 30.0127 15.9451 27.9334 15.9993C25.854 16.0534 23.8526 16.8015 22.2475 18.1245C20.6424 19.4475 19.526 21.2694 19.0759 23.3002L17.0649 32.3502C16.9676 32.7886 16.97 33.2433 17.0719 33.6807C17.1737 34.1181 17.3725 34.5271 17.6535 34.8774C17.9346 35.2277 18.2907 35.5105 18.6956 35.7048C19.1004 35.8991 19.5438 36.0001 19.9929 36.0002H23.5999C23.8294 37.1305 24.4426 38.1466 25.3357 38.8766C26.2287 39.6065 27.3466 40.0052 28.4999 40.0052C29.6533 40.0052 30.7712 39.6065 31.6642 38.8766C32.5572 38.1466 33.1704 37.1305 33.3999 36.0002H36.8699C37.332 36 37.7878 35.893 38.2018 35.6876C38.6158 35.4823 38.9767 35.184 39.2564 34.8162C39.5362 34.4484 39.7271 34.0209 39.8145 33.5672C39.9018 33.1134 39.8831 32.6455 39.7599 32.2002H39.7589ZM28.4999 38.0002C27.8817 37.9976 27.2793 37.8041 26.7752 37.4461C26.2711 37.0881 25.89 36.5831 25.6839 36.0002H31.3159C31.1098 36.5831 30.7287 37.0881 30.2246 37.4461C29.7205 37.8041 29.1182 37.9976 28.4999 38.0002ZM37.6649 33.6052C37.5716 33.7289 37.4507 33.829 37.3118 33.8976C37.1729 33.9662 37.0198 34.0013 36.8649 34.0002H19.9929C19.8432 34.0001 19.6954 33.9665 19.5604 33.9017C19.4254 33.8369 19.3067 33.7426 19.213 33.6258C19.1193 33.509 19.053 33.3726 19.0191 33.2268C18.9852 33.0809 18.9844 32.9293 19.0169 32.7832L21.0279 23.7332C21.3823 22.1394 22.2592 20.7098 23.5194 19.6716C24.7795 18.6335 26.3505 18.0463 27.9827 18.0036C29.6148 17.9608 31.2144 18.4649 32.5272 19.4356C33.84 20.4064 34.7906 21.7881 35.2279 23.3612L37.8279 32.7322C37.8704 32.8804 37.8777 33.0364 37.8494 33.1879C37.8212 33.3394 37.758 33.4823 37.6649 33.6052Z" fill="#252729"/>
</g>
<defs>
<clipPath id="clip0_20_11373">
<rect width="24" height="24" fill="white" transform="translate(16.5 16)"/>
</clipPath>
</defs>
</svg>
